# xmcd
#
# Track frame offsets: 
#        150
#        16677
#        36383
#        51521
#        70200
#        101278
#        131175
#        156060
#        174945
#        200463
#        217976
#        237374
#        255416
#        278627
#
# Disc length: 4005 seconds
#
# Revision: 2
# Processed by: cddbd v1.5.2PL0 Copyright (c) Steve Scherf et al.
# Submitted via: ExactAudioCopy v0.99pb4
#
DISCID=bd0fa30e
DTITLE=Various Artist - Best Jazz 100 - Relaxing Jazz [CD4)
DYEAR=2006
DGENRE=Jazz
TTITLE0=Lou Rawls and Dianne Reeves - At Last
TTITLE1=The Three Sounds - Makin' Whoopee
TTITLE2=Sonny Rollins - Namely You
TTITLE3=Cassandra Wilson - Time After Time
TTITLE4=Wayne Shorter - Infant Eyes
TTITLE5=Kurt Elling - In The Winelight
TTITLE6=Herbie Hancock - Cantaloupe Island
TTITLE7=Charlie Hunter and Norah Jones - More Than This
TTITLE8=Joe Henderson - Beatrice
TTITLE9=Jackie Allen - Lazy Afternoon
TTITLE10=Joe Lovano - I've Got The World On A String
TTITLE11=Holly Cole - Make It Go Away
TTITLE12=Stefon Harris and Jacky Terrasson - Deja Vu
TTITLE13=Bobby McFerrin - Don't Worry Be Happy
EXTD=YEAR: 2006
EXTT0=
EXTT1=
EXTT2=
EXTT3=
EXTT4=
EXTT5=
EXTT6=
EXTT7=
EXTT8=
EXTT9=
EXTT10=
EXTT11=
EXTT12=
EXTT13=
PLAYORDER=
